PathFileType	4	(X/Y/Z)	C:/Users/opensim2020/Desktop/walking_exp_matlab/subject01_walking05_straight_01.trc	
DataRate	CameraRate	NumFrames	NumMarkers	Units	OrigDataRate	OrigDataStartFrame	OrigNumFrames	
100.00	100.00	4	43	mm	100.00	934	239	
Frame#	Time	LFHD			RFHD			LBHD			RBHD			C7			T10			CLAV			STRN			RBAK			LSHO			LUPA			LELB			LFRM			LWRA			LWRB			LFIN			RSHO			RUPA			RELB			RFRM			RWRA			RWRB			RFIN			LASI			RASI			LPSI			RPSI			LTHI			LKNE			LTIB			LANK			LHEE			LTOE			RTHI			RKNE			RTIB			RANK			RHEE			RTOE			*39			*40			*41			*42			
		X1	Y1	Z1	X2	Y2	Z2	X3	Y3	Z3	X4	Y4	Z4	X5	Y5	Z5	X6	Y6	Z6	X7	Y7	Z7	X8	Y8	Z8	X9	Y9	Z9	X10	Y10	Z10	X11	Y11	Z11	X12	Y12	Z12	X13	Y13	Z13	X14	Y14	Z14	X15	Y15	Z15	X16	Y16	Z16	X17	Y17	Z17	X18	Y18	Z18	X19	Y19	Z19	X20	Y20	Z20	X21	Y21	Z21	X22	Y22	Z22	X23	Y23	Z23	X24	Y24	Z24	X25	Y25	Z25	X26	Y26	Z26	X27	Y27	Z27	X28	Y28	Z28	X29	Y29	Z29	X30	Y30	Z30	X31	Y31	Z31	X32	Y32	Z32	X33	Y33	Z33	X34	Y34	Z34	X35	Y35	Z35	X36	Y36	Z36	X37	Y37	Z37	X38	Y38	Z38	X39	Y39	Z39	X40	Y40	Z40	X41	Y41	Z41	X42	Y42	Z42	X43	Y43	Z43	

180	1.790	-1119.64197	501.28494	1684.49829	-1004.31592	502.54547	1693.92432	-1121.18506	399.67508	1611.39819	-1000.00189	397.70151	1619.47693	-1070.55298	386.80524	1438.73340	-1046.97327	348.98798	1149.17737	-1061.19080	532.92737	1374.25244	-1061.25122	575.64056	1218.34656	-984.06165	333.18768	1249.11230	-1224.84985	478.05396	1398.50098	-1312.53638	482.14096	1215.19409	-1320.91064	506.97806	1065.18652	-1343.70117	589.59589	983.80383	-1323.99463	710.92023	917.55298	-1347.87988	664.70038	887.75671	-1358.40796	738.42365	848.87189	-912.51520	466.43460	1407.71912	-807.81921	393.74371	1215.29468	-805.48511	382.87445	1091.41394	-772.56061	393.67059	972.16803	-789.28949	456.12122	844.33533	-750.12836	413.13669	852.74066	-752.63544	437.63742	769.66772	-1150.86768	515.54022	937.39752	-934.06683	519.79242	947.24109	-1090.59180	331.04068	951.32440	-945.65582	337.09854	952.71899	-1192.42383	452.19406	605.49371	-1172.50964	425.70529	472.22681	-1173.52344	356.12418	294.38211	-1110.62036	318.28912	78.12883	-1055.31104	274.02426	54.60807	-1111.25208	466.67844	36.38837	-865.73413	561.44220	625.82037	-891.88940	610.55103	474.30518	-891.67560	561.17810	304.78040	-943.53906	547.92474	99.08605	-1003.37354	509.01355	59.96715	-923.98969	681.65015	57.90735	-1029.27759	483.70044	1723.21033	-3102.13110	1973.00769	1023.85632	-3140.68945	2012.48315	1021.90875			 
181	1.800	-1118.74731	509.91000	1684.07751	-1003.32947	510.98270	1693.22937	-1120.78833	408.14374	1611.01648	-999.23700	406.36542	1618.65845	-1070.23889	395.66086	1438.18201	-1046.66882	356.90527	1148.64197	-1060.81372	541.78448	1373.67578	-1061.19580	584.44617	1217.68738	-984.10406	341.94415	1248.45605	-1224.35608	487.16727	1398.30090	-1312.62048	491.73383	1215.38208	-1321.63916	517.38367	1065.52625	-1344.30188	601.61444	985.57904	-1324.50439	724.20953	921.87769	-1348.56006	678.58655	891.15228	-1359.01440	753.12122	853.82574	-912.05646	475.10571	1406.92200	-807.94275	401.54129	1214.54199	-805.72113	390.06268	1090.84021	-772.78284	399.94598	971.54211	-789.13812	461.97757	843.39856	-750.30951	418.83893	852.01733	-752.72571	442.60309	768.72504	-1151.20654	523.90942	936.95026	-934.23212	529.04449	946.54730	-1090.10376	339.53592	950.91656	-945.20416	345.90549	952.44043	-1192.56311	457.27115	605.40845	-1172.95813	429.07825	472.39752	-1173.53674	357.98773	295.11270	-1110.51941	318.72980	78.96503	-1054.99854	274.37634	55.77663	-1111.32910	466.78217	36.28884	-866.14459	568.20776	624.09180	-893.21198	618.82495	473.68378	-891.55652	577.55225	302.21707	-942.52448	576.11786	95.71790	-1001.69751	538.43787	54.43842	-923.79230	712.03149	60.70648	-1028.76050	492.15198	1722.37354	-3102.02466	1973.09070	1023.85925	-3140.50635	2012.56909	1022.04010			 
182	1.810	-1117.67798	518.57532	1683.50940	-1002.24841	519.60339	1692.50684	-1120.17249	416.84512	1610.36792	-998.45978	414.92007	1617.77344	-1069.70300	404.46692	1437.51526	-1046.09753	365.65265	1147.97339	-1060.25049	550.61768	1372.97046	-1061.02759	593.21893	1216.99805	-984.00146	350.70813	1247.67480	-1223.88867	496.18524	1398.03967	-1312.70056	501.28802	1215.53870	-1322.35474	527.73981	1065.75903	-1344.86743	613.31250	987.19415	-1324.86060	737.18872	925.93799	-1348.91382	692.15839	894.31909	-1359.36877	767.35382	858.46594	-911.57819	483.89349	1406.03687	-807.88452	409.38782	1213.87854	-805.86182	397.35074	1090.19006	-772.92371	406.56821	970.86292	-789.13257	467.52542	842.23230	-750.38611	424.75723	851.21204	-752.76190	447.77826	767.70941	-1151.39661	532.21368	936.56958	-934.38312	538.45215	945.74170	-1089.46667	348.15280	950.42627	-944.75409	355.07465	951.56030	-1192.64587	462.37393	605.33197	-1173.00830	432.72800	472.51532	-1173.65479	359.95169	295.90323	-1110.48706	319.04330	79.69960	-1054.97156	274.63263	57.09882	-1111.37854	466.92657	36.17536	-866.80511	574.10590	621.86346	-894.56476	627.07886	472.83582	-891.48181	593.73004	300.38983	-941.12323	603.14453	92.75696	-999.81403	567.68652	49.89824	-923.43085	741.39294	65.01247	-1027.72217	500.55743	1721.71204	-3101.82788	1973.06299	1023.78485	-3140.54370	2012.57910	1022.02710			 
183	1.820	-1116.53528	527.22180	1682.89368	-1001.12842	528.20923	1691.71643	-1119.22400	425.60834	1609.65588	-997.59991	423.58066	1616.93005	-1069.13086	413.28098	1436.81763	-1045.35059	374.52377	1147.27271	-1059.60852	559.48401	1372.25842	-1060.73816	602.07446	1216.31506	-983.72314	359.47952	1246.79700	-1223.14404	505.26233	1397.68762	-1312.73267	510.89362	1215.64221	-1322.87134	537.98450	1065.88806	-1345.27100	625.08795	988.84271	-1325.07263	749.90765	929.82837	-1348.72131	705.70801	897.22247	-1359.68835	781.33582	862.99884	-910.89587	492.50397	1405.13013	-807.75897	417.19626	1213.11304	-805.92981	404.70862	1089.46777	-772.99518	413.25732	970.15686	-788.82922	473.97137	841.48279	-750.37421	430.73990	850.48822	-752.70087	453.52463	766.82983	-1151.72925	540.73071	936.02704	-934.48663	548.00970	944.85864	-1088.67871	356.92395	949.91724	-944.13861	364.51160	950.73108	-1192.95422	467.51352	605.35828	-1173.39905	436.38824	472.68427	-1173.72485	362.04138	296.71893	-1110.47742	319.48776	80.72185	-1054.85266	275.02936	58.31464	-1111.51599	466.80264	36.03532	-867.25360	580.22601	619.70575	-895.89697	635.19360	471.87015	-891.48358	609.46204	298.64978	-939.80243	629.30646	91.25016	-997.88739	595.69104	46.40987	-923.10345	769.38403	69.68982	-1026.59302	509.26392	1720.89709	-3101.91528	1973.16687	1023.46124	-3140.63525	2012.57764	1022.00861			 
